<?xml version="1.0" encoding="UTF-8"?>
<svg id="Layer_2" data-name="Layer 2" xmlns="http://www.w3.org/2000/svg" viewBox="0 0 221.36 305.09">
  <defs>
    <style>
      .cls-1 {
        fill: none;
      }
    </style>
  </defs>
  <g id="Layer_1-2" data-name="Layer 1">
    <g>
      <path d="M199.09,182.46c-3.37,9.28-7.92,17.59-13.63,24.94-6.85,8.83-14.86,16.04-24.02,21.64-.84,.52-1.7,1.03-2.57,1.52-1.03,.58-2.06,1.14-3.1,1.67h-.01c-9.35,4.84-19.32,7.95-29.95,9.34-4.19,.54-8.4,.78-12.65,.71h-.01c-2.16-.03-4.33-.14-6.5-.33-5.6-.48-11.25-1.49-16.96-3.02-11.52-3.09-21.8-7.91-30.84-14.47-.59-.43-1.18-.87-1.76-1.31-.74-.57-1.47-1.14-2.19-1.73-1.74-1.41-3.42-2.88-5.03-4.4-.98-.91-1.93-1.85-2.85-2.8-5.03-5.15-9.38-10.86-13.06-17.13-5.96-10.14-9.78-21.25-11.45-33.35-1.67-12.09-.77-24.61,2.71-37.58,3.47-12.97,8.97-24.31,16.48-34.04,7.51-9.72,16.39-17.48,26.63-23.29,10.23-5.8,21.25-9.46,33.06-11,11.81-1.52,23.85-.65,36.12,2.64,12.27,3.29,23.13,8.55,32.6,15.77,2.93,2.25,5.7,4.64,8.3,7.17,3.88,3.78,2.97,10.64-1.72,13.57l-15.62,9.75c-2.78,1.73-6.22,1.6-8.74-.37-6.84-5.36-14.83-9.27-23.98-11.72-10.96-2.94-21.54-3.23-31.72-.89-10.18,2.33-18.99,6.93-26.44,13.75-7.43,6.84-12.62,15.68-15.53,26.55-2.91,10.87-2.84,21.11,.18,30.75,3.03,9.65,8.34,17.96,15.93,24.97,7.59,7.02,16.95,12.01,28.08,14.99,10.96,2.94,21.52,3.28,31.68,1.03,10.16-2.26,18.95-6.8,26.4-13.64,5.74-5.26,10.12-11.72,13.16-19.37,1.6-4.02,5.69-6.28,9.6-5.23l14.16,3.79c4.55,1.22,6.97,6.38,5.24,11.12Z"/>
      <path d="M185.3,255.45c-12.98-2.45-39.6-3.68-62.04,19.62-35.52,36.88-68.5,37.67-87.14,13.83-17.29-22.13-2.79-49.63,8.69-65.39,1.32-1.81,3.9-2.09,5.6-.63,.97,.83,1.96,1.65,2.97,2.44,1.22,.89,1.39,1.64,1.48,2.99,.06,4.75,.35,9.66,1.08,13.6,5.1,27.76,30.54,24.25,48.84,6.87,.61-.58,1.24-1.15,1.89-1.71,.77-.66,1.75-.99,2.76-.94,1.7,.09,3.38,.14,5.07,.14,3.95,0,7.93-.25,11.83-.76,12.27-1.59,23.88-5.46,34.52-11.49h0c.85-.49,1.87-.64,2.82-.4,4.9,1.26,9.49,3.22,13.53,5.94,3.65,2.44,7.8,7.14,10.97,11.11,1.7,2.14-.17,5.27-2.86,4.76Z"/>
      <path d="M110.68,0h0C123.6,0,134.1,10.49,134.1,23.42v11.42c0,6.62-5.38,12-12,12h-22.84c-6.62,0-12-5.38-12-12v-11.42C87.26,10.49,97.75,0,110.68,0Z"/>
      <path d="M197.97,25.92h0c12.93,0,23.42,10.49,23.42,23.42h0c0,12.93-10.49,23.42-23.42,23.42h-11.42c-6.62,0-12-5.38-12-12v-11.42c0-12.93,10.49-23.42,23.42-23.42Z" transform="translate(92.87 -125.53) rotate(45)"/>
      <path d="M11.97,36.32h11.42c12.93,0,23.42,10.49,23.42,23.42h0c0,12.93-10.49,23.42-23.42,23.42h0C10.47,83.16-.03,72.67-.03,59.74v-11.42c0-6.62,5.38-12,12-12Z" transform="translate(82.17 85.45) rotate(135)"/>
      <path d="M159.27,146.76c0,6.86-2.61,13.72-7.83,18.96,0,.02-.03,.04-.05,.06l-19.02,19.02-.03,.03c-10.46,10.46-27.41,10.46-37.86,0h0s0,0,0,0l-19.01-19.01s-.06-.06-.08-.09c-10.42-10.52-10.38-27.48,.08-37.95,5.25-5.26,12.13-7.88,19.01-7.88,6.84,0,13.69,2.59,18.93,7.79h0c10.5-10.45,27.49-10.43,37.98,.05,5.26,5.26,7.88,12.14,7.88,19.02Z"/>
      <polyline class="cls-1" points="185.71 204.63 185.44 204.36 161.78 180.71"/>
    </g>
  </g>
</svg>