<?xml version="1.0" encoding="UTF-8"?>
<svg id="Layer_2" data-name="Layer 2" xmlns="http://www.w3.org/2000/svg" viewBox="0 0 177.95 224.92">
  <defs>
    <style>
      .cls-1 {
        fill: none;
      }
    </style>
  </defs>
  <g id="Layer_1-2" data-name="Layer 1">
    <g>
      <path d="M177.39,165.09c-3.37,9.28-7.92,17.59-13.63,24.94-6.85,8.83-14.86,16.04-24.02,21.64-.84,.52-1.7,1.03-2.57,1.52-1.03,.58-2.06,1.14-3.1,1.67h-.01c-9.35,4.84-19.32,7.95-29.95,9.34-4.19,.54-8.4,.78-12.65,.71h-.01c-2.16-.03-4.33-.14-6.5-.33-5.6-.48-11.25-1.49-16.96-3.02-11.52-3.09-21.8-7.91-30.84-14.47-.59-.43-1.18-.87-1.76-1.31-.74-.57-1.47-1.14-2.19-1.73-1.74-1.41-3.42-2.88-5.03-4.4-.98-.91-1.93-1.85-2.85-2.8-5.03-5.15-9.38-10.86-13.06-17.13-5.96-10.14-9.78-21.25-11.45-33.35-1.67-12.09-.77-24.61,2.71-37.58,3.47-12.97,8.97-24.31,16.48-34.04,7.51-9.72,16.39-17.48,26.63-23.29,10.23-5.8,21.25-9.46,33.06-11,11.81-1.52,23.85-.65,36.12,2.64,12.27,3.29,23.13,8.55,32.6,15.77,2.93,2.25,5.7,4.64,8.3,7.17,3.88,3.78,2.97,10.64-1.72,13.57l-15.62,9.75c-2.78,1.73-6.22,1.6-8.74-.37-6.84-5.36-14.83-9.27-23.98-11.72-10.96-2.94-21.54-3.23-31.72-.89-10.18,2.33-18.99,6.93-26.44,13.75-7.43,6.84-12.62,15.68-15.53,26.55s-2.84,21.11,.18,30.75c3.03,9.65,8.34,17.96,15.93,24.97,7.59,7.02,16.95,12.01,28.08,14.99,10.96,2.94,21.52,3.28,31.68,1.03,10.16-2.26,18.95-6.8,26.4-13.64,5.74-5.26,10.12-11.72,13.16-19.37,1.6-4.02,5.69-6.28,9.6-5.23l14.16,3.79c4.55,1.22,6.97,6.38,5.24,11.12Z"/>
      <path d="M112.39,23.42v11.42c0,.9-.1,1.78-.3,2.62-5.17-1.19-10.3-1.94-15.4-2.26-5.19-.33-10.34-.21-15.44,.36-.52,.05-1.04,.11-1.56,.18-4.64,.61-9.16,1.54-13.55,2.81-.38-1.17-.59-2.42-.59-3.71v-11.42c0-2.59,.43-5.09,1.22-7.42C69.89,6.72,78.68,0,88.97,0c6.44,0,12.29,2.63,16.54,6.88,2.54,2.54,4.5,5.65,5.66,9.12,.79,2.33,1.22,4.83,1.22,7.42Z"/>
      <path d="M148.21,35.02c0,5.39-1.83,10.78-5.52,15.12-8.06-5.19-17.01-9.11-26.88-11.76-1.24-.33-2.48-.64-3.72-.92-5.17-1.19-10.3-1.94-15.4-2.26-.05-3.14,1.12-6.29,3.5-8.67l8.07-8.07c.91-.91,1.89-1.73,2.91-2.46,9.13-6.56,22.01-5.74,30.21,2.46,4.56,4.55,6.83,10.56,6.83,16.56Z"/>
      <path d="M81.25,35.56c-.52,.05-1.04,.11-1.56,.18-4.64,.61-9.16,1.54-13.55,2.81-6.8,1.94-13.3,4.67-19.51,8.19-3.12,1.77-6.11,3.73-8.98,5.86-.37-.33-.74-.67-1.09-1.02-4.55-4.55-6.82-10.56-6.82-16.56s2.27-12.01,6.82-16.56c8.2-8.2,21.08-9.02,30.21-2.46,1.02,.73,2,1.55,2.91,2.46l8.08,8.07c2.47,2.47,3.63,5.77,3.49,9.03Z"/>
      <polyline class="cls-1" points="164.01 187.25 163.74 186.98 140.08 163.33"/>
      <path d="M136.04,128.46v5.26c0,5.79-4.74,10.53-10.53,10.53h-22.37v23.62c0,5.79-4.74,10.53-10.53,10.53h-5.26c-5.79,0-10.53-4.74-10.53-10.53v-23.62h-22.37c-5.79,0-10.53-4.74-10.53-10.53v-5.26c0-5.79,4.74-10.53,10.53-10.53h22.37v-21.14c0-5.79,4.74-10.53,10.53-10.53h5.26c5.79,0,10.53,4.74,10.53,10.53v21.14h22.37c5.79,0,10.53,4.74,10.53,10.53Z"/>
    </g>
  </g>
</svg>