<?xml version="1.0" encoding="UTF-8"?>
<svg id="Layer_2" data-name="Layer 2" xmlns="http://www.w3.org/2000/svg" viewBox="0 0 219.72 243.16">
  <g id="Layer_1-2" data-name="Layer 1">
    <path d="M144.1,160.96c0,5.12-1.95,10.24-5.85,14.16-.01,.01-.02,.03-.04,.04l-14.2,14.21-.02,.02c-7.81,7.81-20.47,7.81-28.28,0h-.01l-14.2-14.2s-.04-.05-.06-.07c-7.78-7.86-7.76-20.53,.06-28.34,3.92-3.93,9.06-5.89,14.2-5.89s10.23,1.94,14.14,5.82h0c7.84-7.8,20.53-7.79,28.36,.04,3.93,3.93,5.89,9.07,5.89,14.21Z"/>
    <path d="M154.77,132.37c0,2.79-1.06,5.58-3.17,7.69-2.11,2.11-4.9,3.17-7.69,3.17s-5.56-1.06-7.68-3.17l-3.75-3.75c-2.16-2.17-2.16-5.71,0-7.88l3.75-3.74c4.23-4.23,11.14-4.23,15.37,0,2.11,2.11,3.17,4.9,3.17,7.68Z"/>
    <path d="M85.95,136.31l-3.75,3.75c-2.11,2.11-4.89,3.17-7.68,3.17s-5.57-1.06-7.68-3.17c-2.11-2.11-3.17-4.9-3.17-7.69s1.06-5.57,3.17-7.68c4.22-4.23,11.14-4.23,15.36,0l3.75,3.74c2.17,2.17,2.17,5.71,0,7.88Z"/>
    <path d="M144.1,160.96c0,5.12-1.95,10.24-5.85,14.16-.01,.01-.02,.03-.04,.04l-14.2,14.21-.02,.02c-7.81,7.81-20.47,7.81-28.28,0h-.01l-14.2-14.2s-.04-.05-.06-.07c-7.78-7.86-7.76-20.53,.06-28.34,3.92-3.93,9.06-5.89,14.2-5.89s10.23,1.94,14.14,5.82h0c7.84-7.8,20.53-7.79,28.36,.04,3.93,3.93,5.89,9.07,5.89,14.21Z"/>
    <path d="M85.95,136.31l-3.75,3.75c-2.11,2.11-4.89,3.17-7.68,3.17s-5.57-1.06-7.68-3.17c-2.11-2.11-3.17-4.9-3.17-7.69s1.06-5.57,3.17-7.68c4.22-4.23,11.14-4.23,15.36,0l3.75,3.74c2.17,2.17,2.17,5.71,0,7.88Z"/>
    <path d="M154.77,132.37c0,2.79-1.06,5.58-3.17,7.69-2.11,2.11-4.9,3.17-7.69,3.17s-5.56-1.06-7.68-3.17l-3.75-3.75c-2.16-2.17-2.16-5.71,0-7.88l3.75-3.74c4.23-4.23,11.14-4.23,15.37,0,2.11,2.11,3.17,4.9,3.17,7.68Z"/>
    <path d="M82.2,140.06c-2.11,2.11-4.89,3.17-7.68,3.17s-5.57-1.06-7.68-3.17c-2.11-2.11-3.17-4.9-3.17-7.69s1.06-5.57,3.17-7.68c4.22-4.23,11.14-4.23,15.36,0l3.75,3.74c2.17,2.17,2.17,5.71,0,7.88l-3.75,3.75Z"/>
    <path d="M98.35,125.93v-5.29c0-5.98,4.89-10.87,10.87-10.87,2.99,0,5.7,1.22,7.67,3.19s3.19,4.69,3.19,7.68v5.29c0,3.07-2.5,5.57-5.56,5.57h-10.6c-3.06,0-5.57-2.5-5.57-5.57Z"/>
    <path d="M138.21,146.75c3.93,3.93,5.89,9.07,5.89,14.21s-1.95,10.24-5.85,14.16c-.01,.01-.02,.03-.04,.04l-14.2,14.21-.02,.02c-7.81,7.81-20.47,7.81-28.28,0h-.01l-14.2-14.2s-.04-.05-.06-.07c-7.78-7.86-7.76-20.53,.06-28.34,3.92-3.93,9.06-5.89,14.2-5.89s10.23,1.94,14.14,5.82h0c7.84-7.8,20.53-7.79,28.36,.04Z"/>
    <path d="M154.77,132.37c0,2.79-1.06,5.58-3.17,7.69-2.11,2.11-4.9,3.17-7.69,3.17s-5.56-1.06-7.68-3.17l-3.75-3.75c-2.16-2.17-2.16-5.71,0-7.88l3.75-3.74c4.23-4.23,11.14-4.23,15.37,0,2.11,2.11,3.17,4.9,3.17,7.68Z"/>
    <path d="M103.41,242.95c-4.22-.29-8.39-.88-12.55-1.78h-.01c-2.11-.45-4.21-.98-6.31-1.59-5.39-1.57-10.74-3.66-16.04-6.28-10.69-5.28-19.83-12.02-27.41-20.22-.5-.54-.99-1.09-1.47-1.63-.62-.71-1.22-1.41-1.81-2.13-1.43-1.72-2.79-3.49-4.07-5.3-.79-1.08-1.53-2.19-2.25-3.3-3.93-6.03-7.08-12.48-9.46-19.35-3.86-11.11-5.43-22.75-4.71-34.95,.73-12.18,4.06-24.28,10.01-36.32,5.94-12.04,13.55-22.09,22.82-30.16,5.14-4.47,10.57-8.27,16.3-11.39,1.97-1.08,3.97-2.08,6-3,2.73-1.22,5.52-2.3,8.37-3.24,11.17-3.69,22.69-5.13,34.57-4.33,11.88,.82,23.52,4.03,34.91,9.66,1.52,.75,3.01,1.53,4.47,2.34,4.3,2.4,8.34,5.05,12.09,7.96,.02,.01,.03,.03,.05,.04,.73,.57,1.45,1.13,2.16,1.72,.82,.68,1.63,1.38,2.43,2.09,1.43,1.25,2.81,2.56,4.14,3.91,1.23,1.22,2.41,2.49,3.55,3.78,2.43,2.78,4.68,5.66,6.73,8.65,3.07,4.47,.83,11.02-4.34,12.97l-17.22,6.51c-1.82,.68-3.73,.68-5.42,.06-1.17-.43-2.23-1.15-3.08-2.13-5.66-6.6-12.73-11.99-21.23-16.19-10.17-5.02-20.49-7.38-30.93-7.07-8.34,.23-16.11,2.06-23.31,5.46-1.81,.85-3.58,1.8-5.31,2.85-.23,.14-.46,.29-.69,.44-4.02,2.53-7.64,5.6-10.85,9.2-2.83,3.19-5.36,6.8-7.56,10.83-.45,.83-.89,1.67-1.32,2.53-4.98,10.09-6.91,20.15-5.84,30.19,1.09,10.06,4.67,19.25,10.74,27.61,4.01,5.53,8.96,10.34,14.83,14.44,1.9,1.33,3.9,2.58,6,3.76,1.23,.69,2.49,1.35,3.78,1.99,10.17,5.03,20.46,7.42,30.87,7.2,10.4-.22,19.91-2.96,28.55-8.21,3.31-2,6.35-4.36,9.11-7.08,2.81-2.75,5.33-5.87,7.59-9.34,2.35-3.63,6.8-5.05,10.43-3.25l13.15,6.48c4.22,2.09,5.59,7.62,2.96,11.93-2.65,4.36-5.55,8.41-8.71,12.14-1.77,2.1-3.62,4.1-5.56,6-1.29,1.26-2.61,2.48-3.97,3.66-.21,.18-.41,.36-.62,.53-3.48,2.97-7.11,5.64-10.87,8-5.17,3.24-10.61,5.9-16.3,7.99-.92,.35-1.87,.68-2.82,.99-1.12,.37-2.24,.71-3.36,1.03h-.01c-10.12,2.92-20.5,4.02-31.2,3.3Z"/>
    <path d="M104.05,26.53L15.89,88.77c-3.49,2.46-8.14,2.46-11.63,0h0c-5.69-4.02-5.69-12.45,0-16.47L104.04,1.85c3.49-2.46,8.14-2.46,11.63,0l99.78,70.46c5.69,4.02,5.69,12.45,0,16.47h0c-3.48,2.46-8.14,2.46-11.63,0L115.67,26.53c-3.48-2.46-8.14-2.46-11.63,0Z"/>
  </g>
</svg>