<?xml version="1.0" encoding="UTF-8"?>
<svg id="Layer_2" data-name="Layer 2" xmlns="http://www.w3.org/2000/svg" viewBox="0 0 185.37 251.49">
  <defs>
    <style>
      .cls-1 {
        fill: none;
      }
    </style>
  </defs>
  <g id="Layer_1-2" data-name="Layer 1">
    <g>
      <path d="M47.42,250.36c-8.67-4.73-16.2-10.48-22.6-17.23-7.7-8.1-13.62-17.11-17.77-27.01-.39-.91-.76-1.84-1.12-2.77-.42-1.11-.82-2.21-1.18-3.32h0C1.37,190.05-.21,179.72,.02,169.01c.1-4.22,.49-8.42,1.2-12.61h0c.36-2.14,.79-4.27,1.31-6.39,1.32-5.46,3.17-10.9,5.54-16.31,4.79-10.92,11.1-20.36,18.95-28.31,.51-.52,1.04-1.04,1.56-1.54,.67-.65,1.35-1.28,2.04-1.9,1.66-1.51,3.36-2.95,5.11-4.31,1.05-.83,2.12-1.63,3.2-2.4,5.85-4.2,12.15-7.64,18.9-10.33,10.92-4.36,22.48-6.47,34.69-6.29,12.2,.17,24.45,2.95,36.74,8.34,12.3,5.38,22.68,12.53,31.17,21.42,8.48,8.89,14.81,18.84,19.01,29.84,4.19,10.99,6.15,22.43,5.89,34.34-.28,11.9-2.95,23.68-8.05,35.31-5.1,11.63-11.94,21.58-20.5,29.85-2.67,2.56-5.45,4.94-8.34,7.12-4.32,3.27-10.97,1.33-13.16-3.74l-7.29-16.91c-1.29-3.01-.64-6.39,1.68-8.58,6.33-5.95,11.4-13.26,15.2-21.94,4.56-10.39,6.44-20.81,5.66-31.22-.77-10.41-3.99-19.82-9.61-28.21-5.64-8.38-13.6-14.84-23.91-19.35-10.31-4.51-20.44-5.99-30.43-4.46-10,1.54-19.01,5.54-27.09,11.99-8.08,6.45-14.43,14.95-19.05,25.5-4.56,10.39-6.48,20.78-5.79,31.16,.7,10.38,3.87,19.76,9.51,28.15,4.34,6.47,10.06,11.77,17.17,15.93,3.73,2.19,5.35,6.57,3.72,10.28l-5.88,13.43c-1.89,4.31-7.36,5.93-11.78,3.5Z"/>
      <path d="M127.36,183.44c0,5.12-1.95,10.25-5.85,14.16,0,.01-.02,.03-.04,.04l-14.21,14.21-.02,.02c-7.81,7.81-20.47,7.81-28.28,0h0s0,0,0,0l-14.2-14.2s-.04-.04-.06-.07c-7.78-7.86-7.76-20.52,.06-28.34,3.92-3.92,9.06-5.88,14.2-5.88s10.23,1.93,14.14,5.82h0c7.84-7.81,20.53-7.79,28.37,.04,3.92,3.92,5.88,9.07,5.88,14.21Z"/>
      <polyline class="cls-1" points="38.2 242.91 38.47 242.64 62.12 218.98"/>
      <path d="M77.43-.04h15.69C110.89-.04,125.31,14.38,125.31,32.14h0c0,17.76-14.42,32.18-32.18,32.18h0c-17.76,0-32.18-14.42-32.18-32.18v-15.69C60.94,7.35,68.33-.04,77.43-.04Z" transform="translate(136.24 120.72) rotate(-135)"/>
      <path d="M92.48,132.25h0c6,0,10.87,4.87,10.87,10.87v5.3c0,3.07-2.49,5.57-5.57,5.57h-10.6c-3.07,0-5.57-2.49-5.57-5.57v-5.3c0-6,4.87-10.87,10.87-10.87Z"/>
      <path d="M127.18,143.99h0c6,0,10.87,4.87,10.87,10.87h0c0,6-4.87,10.87-10.87,10.87h-5.3c-3.07,0-5.57-2.49-5.57-5.57v-5.3c0-6,4.87-10.87,10.87-10.87Z" transform="translate(146.75 -44.57) rotate(45)"/>
      <path d="M52.49,143.99h5.3c6,0,10.87,4.87,10.87,10.87h0c0,6-4.87,10.87-10.87,10.87h0c-6,0-10.87-4.87-10.87-10.87v-5.3c0-3.07,2.49-5.57,5.57-5.57Z" transform="translate(208.15 223.5) rotate(135)"/>
    </g>
  </g>
</svg>