<?xml version="1.0" encoding="UTF-8"?>
<svg id="Layer_2" data-name="Layer 2" xmlns="http://www.w3.org/2000/svg" viewBox="0 0 185.4 238.27">
  <g id="Layer_1-2" data-name="Layer 1">
    <line x1="166.69" y1="201.61" x2="166.42" y2="201.34"/>
    <path d="M126.94,156.44c0,5.12-1.95,10.24-5.85,14.16-.01,.01-.02,.03-.04,.04l-14.2,14.21-.02,.02c-7.81,7.81-20.47,7.81-28.28,0h-.01l-14.2-14.2s-.04-.05-.06-.07c-7.78-7.86-7.76-20.53,.06-28.34,3.92-3.93,9.06-5.89,14.2-5.89s10.23,1.94,14.14,5.82h0c7.84-7.8,20.53-7.79,28.36,.04,3.93,3.93,5.89,9.07,5.89,14.21Z"/>
    <path d="M102.92,116.12v5.29c0,3.07-2.5,5.57-5.56,5.57h-10.6c-3.06,0-5.57-2.5-5.57-5.57v-5.29c0-5.98,4.89-10.87,10.87-10.87,2.99,0,5.7,1.22,7.67,3.19,1.97,1.97,3.19,4.69,3.19,7.68Z"/>
    <path d="M137.61,127.85c0,2.79-1.06,5.58-3.17,7.69-2.11,2.11-4.9,3.17-7.69,3.17s-5.56-1.06-7.68-3.17l-3.75-3.75c-2.16-2.17-2.16-5.71,0-7.88l3.75-3.74c4.23-4.23,11.14-4.23,15.37,0,2.11,2.11,3.17,4.9,3.17,7.68Z"/>
    <path d="M68.79,131.79l-3.75,3.75c-2.11,2.11-4.89,3.17-7.68,3.17s-5.57-1.06-7.68-3.17c-2.11-2.11-3.17-4.9-3.17-7.69s1.06-5.57,3.17-7.68c4.22-4.23,11.14-4.23,15.36,0l3.75,3.74c2.17,2.17,2.17,5.71,0,7.88Z"/>
    <path d="M13.47,78.95c-3.33-.39-5.72-2.99-5.72-5.88v-.28c0-38.83,35.49-71.33,80.73-72.74,47.63-1.48,86.93,31.32,86.93,71.84v.5c0,2.29-1.51,4.31-4.13,5.3-.79,.3-1.66,.4-2.52,.4h-.01c-1.94,0-3.78-.74-5.05-2.02-.27-.28-.55-.55-.82-.82-.55-.55-1.11-1.08-1.68-1.61-1.1-1.02-1.77-2.35-1.83-3.74-.58-14.77-7.62-28.66-19.82-39.13-13.53-11.61-31.78-17.71-51.03-16.98-14.76,.55-28.99,5.26-40.32,13.39-15.27,10.95-24,26.62-24.42,43.46-.03,1.28-.62,2.5-1.6,3.48-.23,.23-.47,.47-.7,.72-.62,.64-1.19,1.26-1.76,1.89-1.54,1.7-3.84,2.52-6.25,2.23Z"/>
    <path d="M126.94,156.44c0,5.12-1.95,10.24-5.85,14.16-.01,.01-.02,.03-.04,.04l-14.2,14.21-.02,.02c-7.81,7.81-20.47,7.81-28.28,0h-.01l-14.2-14.2s-.04-.05-.06-.07c-7.78-7.86-7.76-20.53,.06-28.34,3.92-3.93,9.06-5.89,14.2-5.89s10.23,1.94,14.14,5.82h0c7.84-7.8,20.53-7.79,28.36,.04,3.93,3.93,5.89,9.07,5.89,14.21Z"/>
    <path d="M68.79,131.79l-3.75,3.75c-2.11,2.11-4.89,3.17-7.68,3.17s-5.57-1.06-7.68-3.17c-2.11-2.11-3.17-4.9-3.17-7.69s1.06-5.57,3.17-7.68c4.22-4.23,11.14-4.23,15.36,0l3.75,3.74c2.17,2.17,2.17,5.71,0,7.88Z"/>
    <path d="M102.92,116.12v5.29c0,3.07-2.5,5.57-5.56,5.57h-10.6c-3.06,0-5.57-2.5-5.57-5.57v-5.29c0-5.98,4.89-10.87,10.87-10.87,2.99,0,5.7,1.22,7.67,3.19,1.97,1.97,3.19,4.69,3.19,7.68Z"/>
    <path d="M137.61,127.85c0,2.79-1.06,5.58-3.17,7.69-2.11,2.11-4.9,3.17-7.69,3.17s-5.56-1.06-7.68-3.17l-3.75-3.75c-2.16-2.17-2.16-5.71,0-7.88l3.75-3.74c4.23-4.23,11.14-4.23,15.37,0,2.11,2.11,3.17,4.9,3.17,7.68Z"/>
    <path d="M65.04,135.54c-2.11,2.11-4.89,3.17-7.68,3.17s-5.57-1.06-7.68-3.17c-2.11-2.11-3.17-4.9-3.17-7.69s1.06-5.57,3.17-7.68c4.22-4.23,11.14-4.23,15.36,0l3.75,3.74c2.17,2.17,2.17,5.71,0,7.88l-3.75,3.75Z"/>
    <path d="M81.19,121.41v-5.29c0-5.98,4.89-10.87,10.87-10.87,2.99,0,5.7,1.22,7.67,3.19,1.97,1.97,3.19,4.69,3.19,7.68v5.29c0,3.07-2.5,5.57-5.56,5.57h-10.6c-3.06,0-5.57-2.5-5.57-5.57Z"/>
    <path d="M121.05,142.23c3.93,3.93,5.89,9.07,5.89,14.21s-1.95,10.24-5.85,14.16c-.01,.01-.02,.03-.04,.04l-14.2,14.21-.02,.02c-7.81,7.81-20.47,7.81-28.28,0h-.01l-14.2-14.2s-.04-.05-.06-.07c-7.78-7.86-7.76-20.53,.06-28.34,3.92-3.93,9.06-5.89,14.2-5.89s10.23,1.94,14.14,5.82h0c7.84-7.8,20.53-7.79,28.36,.04Z"/>
    <path d="M137.61,127.85c0,2.79-1.06,5.58-3.17,7.69-2.11,2.11-4.9,3.17-7.69,3.17s-5.56-1.06-7.68-3.17l-3.75-3.75c-2.16-2.17-2.16-5.71,0-7.88l3.75-3.74c4.23-4.23,11.14-4.23,15.37,0,2.11,2.11,3.17,4.9,3.17,7.68Z"/>
    <path d="M185.18,152.01c-.29,4.22-.88,8.39-1.78,12.55h0c-.45,2.12-.98,4.22-1.59,6.32-1.57,5.39-3.66,10.74-6.28,16.04-5.28,10.69-12.02,19.83-20.22,27.41-.54,.5-1.09,.99-1.63,1.47-.71,.62-1.41,1.22-2.13,1.81-1.72,1.43-3.49,2.79-5.3,4.07-1.08,.79-2.19,1.53-3.3,2.25-6.03,3.93-12.48,7.08-19.35,9.46-11.11,3.86-22.75,5.43-34.95,4.71-12.18-.73-24.28-4.06-36.32-10.01-12.04-5.94-22.09-13.55-30.16-22.82-4.47-5.14-8.27-10.57-11.39-16.3-1.08-1.97-2.08-3.97-3-6-1.22-2.73-2.3-5.52-3.24-8.37C.85,163.43-.59,151.91,.21,140.03c.82-11.88,4.03-23.52,9.66-34.91,.75-1.52,1.53-3.01,2.34-4.47,2.4-4.3,5.05-8.34,7.96-12.09,.01-.02,.03-.03,.04-.05,.57-.73,1.13-1.45,1.72-2.16,.68-.82,1.38-1.63,2.09-2.43,1.25-1.43,2.56-2.81,3.91-4.14,1.22-1.23,2.49-2.41,3.78-3.55,2.78-2.43,5.66-4.68,8.65-6.73,4.47-3.07,11.02-.83,12.97,4.34l6.51,17.22c.68,1.82,.68,3.73,.06,5.42-.43,1.17-1.15,2.23-2.13,3.08-6.6,5.66-11.99,12.73-16.19,21.23-5.02,10.17-7.38,20.49-7.07,30.93,.23,8.34,2.06,16.11,5.46,23.31,.85,1.81,1.8,3.58,2.85,5.31,.14,.23,.29,.46,.44,.69,2.53,4.02,5.6,7.64,9.2,10.85,3.19,2.83,6.8,5.36,10.83,7.56,.83,.45,1.67,.89,2.53,1.32,10.09,4.98,20.15,6.91,30.19,5.84,10.06-1.09,19.25-4.67,27.61-10.74,5.53-4.01,10.34-8.96,14.44-14.83,1.33-1.9,2.58-3.9,3.76-6,.69-1.23,1.35-2.49,1.99-3.78,5.03-10.17,7.42-20.46,7.2-30.87-.22-10.4-2.96-19.91-8.21-28.55-2-3.31-4.36-6.35-7.08-9.11-2.75-2.81-5.87-5.33-9.34-7.59-3.63-2.35-5.05-6.8-3.25-10.43l6.48-13.15c2.09-4.22,7.62-5.59,11.93-2.96,4.36,2.65,8.41,5.55,12.14,8.71,2.1,1.77,4.1,3.62,6,5.56,1.26,1.29,2.48,2.61,3.66,3.97,.18,.21,.36,.41,.53,.62,2.97,3.48,5.64,7.11,8,10.87,3.24,5.17,5.9,10.61,7.99,16.3,.35,.92,.68,1.87,.99,2.82,.37,1.12,.71,2.24,1.03,3.36h0c2.92,10.13,4.02,20.51,3.3,31.21Z"/>
  </g>
</svg>