<?xml version="1.0" encoding="UTF-8"?>
<svg id="Layer_2" data-name="Layer 2" xmlns="http://www.w3.org/2000/svg" viewBox="0 0 304 211.25">
  <defs>
    <style>
      .cls-1 {
        fill: none;
      }
    </style>
  </defs>
  <g id="Layer_1-2" data-name="Layer 1">
    <g>
      <path d="M264.45,98.85h11.42c12.93,0,23.42,10.49,23.42,23.42h0c0,12.93-10.49,23.42-23.42,23.42h0c-12.93,0-23.42-10.49-23.42-23.42v-11.42c0-6.62,5.38-12,12-12Z" transform="translate(557.4 13.66) rotate(135)"/>
      <path d="M122.63,210.69c-9.28-3.37-17.59-7.92-24.94-13.63-8.83-6.85-16.04-14.86-21.64-24.02-.52-.84-1.03-1.7-1.52-2.57-.58-1.03-1.14-2.06-1.67-3.1h0c-4.84-9.36-7.95-19.33-9.34-29.96-.54-4.19-.78-8.4-.71-12.65h0c.03-2.17,.14-4.34,.33-6.51,.48-5.6,1.49-11.25,3.02-16.96,3.09-11.52,7.91-21.8,14.47-30.84,.43-.59,.87-1.18,1.31-1.76,.57-.74,1.14-1.47,1.73-2.19,1.41-1.74,2.88-3.42,4.4-5.03,.91-.98,1.85-1.93,2.8-2.85,5.15-5.03,10.86-9.38,17.13-13.06,10.14-5.96,21.25-9.78,33.35-11.45,12.09-1.67,24.61-.77,37.58,2.71,12.97,3.47,24.31,8.97,34.04,16.48,9.72,7.51,17.48,16.39,23.29,26.63,5.8,10.23,9.46,21.25,11,33.06,1.52,11.81,.65,23.85-2.64,36.12-3.29,12.27-8.55,23.13-15.77,32.6-2.25,2.93-4.64,5.7-7.17,8.3-3.78,3.88-10.64,2.97-13.57-1.72l-9.75-15.62c-1.73-2.78-1.6-6.22,.37-8.74,5.36-6.84,9.27-14.83,11.72-23.98,2.94-10.96,3.23-21.54,.89-31.72-2.33-10.18-6.93-18.99-13.75-26.44-6.84-7.43-15.68-12.62-26.55-15.53s-21.11-2.84-30.75,.18c-9.65,3.03-17.96,8.34-24.97,15.93-7.02,7.59-12.01,16.95-14.99,28.08-2.94,10.96-3.28,21.52-1.03,31.68,2.26,10.16,6.8,18.95,13.64,26.4,5.26,5.74,11.72,10.12,19.37,13.16,4.02,1.6,6.28,5.69,5.23,9.6l-3.79,14.16c-1.22,4.55-6.38,6.97-11.12,5.24Z"/>
      <path d="M49.64,196.9c2.45-12.98,3.68-39.6-19.62-62.04C-6.86,99.34-7.65,66.36,16.19,47.72c22.13-17.29,49.63-2.79,65.39,8.69,1.81,1.32,2.09,3.9,.63,5.6-.83,.97-1.65,1.96-2.44,2.97-.89,1.22-1.64,1.39-2.99,1.48-4.75,.06-9.66,.35-13.6,1.08-27.76,5.1-24.25,30.54-6.87,48.84,.58,.61,1.15,1.24,1.71,1.89,.66,.77,.99,1.75,.94,2.76-.09,1.7-.14,3.38-.14,5.07,0,3.95,.25,7.93,.76,11.83,1.59,12.27,5.46,23.88,11.49,34.52h0c.49,.85,.64,1.87,.4,2.82-1.26,4.9-3.22,9.49-5.94,13.53-2.44,3.65-7.14,7.8-11.11,10.97-2.14,1.7-5.27-.17-4.76-2.86Z"/>
      <path d="M73.07,20.79h26.37c5.05,0,9.15,4.1,9.15,9.15h0c0,5.05-4.1,9.15-9.15,9.15h-21.91c-5.05,0-9.15-4.1-9.15-9.15v-4.46c0-2.59,2.1-4.69,4.69-4.69Z" transform="translate(172.22 -11.47) rotate(135)"/>
      <path d="M46.45,7.74h26.37c5.05,0,9.15,4.1,9.15,9.15h0c0,5.05-4.1,9.15-9.15,9.15h-21.91c-5.05,0-9.15-4.1-9.15-9.15v-4.46c0-2.59,2.1-4.69,4.69-4.69Z" transform="translate(117.56 -14.93) rotate(135)"/>
      <polyline class="cls-1" points="100.46 197.3 100.73 197.03 124.38 173.37"/>
    </g>
  </g>
</svg>