<?xml version="1.0" encoding="UTF-8"?>
<svg id="Layer_2" data-name="Layer 2" xmlns="http://www.w3.org/2000/svg" viewBox="0 0 221.36 242.3">
  <defs>
    <style>
      .cls-1 {
        fill: #292b2e;
      }
    </style>
  </defs>
  <g id="Layer_1-2" data-name="Layer 1">
    <g>
      <path class="cls-1" d="M101.39,57.83c-11.81,1.54-22.83,5.2-33.06,11-10.23,5.81-19.11,13.57-26.63,23.29-7.51,9.73-13.01,21.07-16.48,34.04-3.48,12.97-4.38,25.49-2.71,37.58,1.67,12.1,5.49,23.21,11.45,33.35,5.96,10.14,13.67,18.83,23.13,26.07,9.46,7.23,20.33,12.49,32.6,15.78s24.31,4.16,36.12,2.64c11.81-1.54,22.82-5.2,33.07-11.01,10.23-5.8,19.1-13.51,26.59-23.16,5.71-7.35,10.25-15.66,13.63-24.94,1.72-4.74-.69-9.9-5.25-11.12l-14.16-3.79c-3.9-1.05-8,1.21-9.59,5.23-3.04,7.66-7.42,14.11-13.17,19.37-7.44,6.84-16.24,11.38-26.4,13.64-10.16,2.26-20.72,1.91-31.68-1.03-11.13-2.98-20.48-7.97-28.08-14.99-7.58-7.01-12.89-15.33-15.93-24.98-3.02-9.63-3.09-19.88-.18-30.75,2.91-10.86,8.1-19.71,15.53-26.54,7.45-6.83,16.26-11.42,26.44-13.76s20.76-2.04,31.72,.89c9.15,2.45,17.14,6.36,23.98,11.72,2.52,1.97,5.96,2.1,8.74,.37l15.61-9.75c4.69-2.93,5.61-9.79,1.72-13.57-2.6-2.53-5.37-4.91-8.3-7.16-9.46-7.23-20.33-12.49-32.6-15.78s-24.31-4.16-36.12-2.64Z"/>
      <path class="cls-1" d="M110.68,0h0C123.6,0,134.1,10.49,134.1,23.42v11.42c0,6.62-5.38,12-12,12h-22.84c-6.62,0-12-5.38-12-12v-11.42C87.26,10.49,97.75,0,110.68,0Z"/>
      <path class="cls-1" d="M197.97,25.92h0c12.93,0,23.42,10.49,23.42,23.42h0c0,12.93-10.49,23.42-23.42,23.42h-11.42c-6.62,0-12-5.38-12-12v-11.42c0-12.93,10.49-23.42,23.42-23.42Z" transform="translate(92.87 -125.53) rotate(45)"/>
      <path class="cls-1" d="M11.97,36.32h11.42c12.93,0,23.42,10.49,23.42,23.42h0c0,12.93-10.49,23.42-23.42,23.42h0C10.47,83.16-.03,72.67-.03,59.74v-11.42c0-6.62,5.38-12,12-12Z" transform="translate(82.17 85.45) rotate(135)"/>
      <path class="cls-1" d="M159.27,146.76c0,6.86-2.61,13.72-7.83,18.96,0,.02-.03,.04-.05,.06l-19.02,19.02-.03,.03c-10.46,10.46-27.41,10.46-37.86,0h0s0,0,0,0l-19.01-19.01s-.06-.06-.08-.09c-10.42-10.52-10.38-27.48,.08-37.95,5.25-5.26,12.13-7.88,19.01-7.88,6.84,0,13.69,2.59,18.93,7.79h0c10.5-10.45,27.49-10.43,37.98,.05,5.26,5.26,7.88,12.14,7.88,19.02Z"/>
      <line class="cls-1" x1="185.71" y1="204.63" x2="185.44" y2="204.36"/>
    </g>
  </g>
</svg>