<?xml version="1.0" encoding="UTF-8"?>
<svg id="Layer_2" data-name="Layer 2" xmlns="http://www.w3.org/2000/svg" viewBox="0 0 221.36 244.8">
  <defs>
    <style>
      .cls-1 {
        fill: #292b2e;
      }

      .cls-2 {
        fill: none;
        stroke: #292b2e;
        stroke-miterlimit: 10;
        stroke-width: 5px;
      }
    </style>
  </defs>
  <g id="Layer_1-2" data-name="Layer 1">
    <g>
      <path class="cls-1" d="M112.71,62.11c7.69,0,15.6,1.07,23.51,3.19,11.57,3.1,21.95,8.12,30.85,14.92,2.77,2.12,5.41,4.4,7.86,6.78,.98,.95,.95,2.27,.89,2.79-.13,1.24-.8,2.34-1.78,2.96l-15.61,9.75c-.48,.3-1,.46-1.52,.46-.55,0-1.06-.18-1.49-.52-7.34-5.76-16.01-10-25.77-12.61-6.49-1.74-12.96-2.62-19.23-2.62-5.03,0-10.04,.57-14.91,1.68-10.97,2.52-20.63,7.55-28.71,14.95-8.12,7.47-13.83,17.2-16.97,28.93-3.14,11.73-3.06,23.01,.24,33.54,3.28,10.44,9.1,19.57,17.3,27.15,8.15,7.53,18.31,12.96,30.18,16.14,6.6,1.77,13.17,2.67,19.53,2.67,4.9,0,9.79-.53,14.54-1.59,10.98-2.44,20.64-7.43,28.69-14.83,6.27-5.74,11.12-12.88,14.43-21.21,.55-1.4,1.77-2.33,3.02-2.33,.21,0,.43,.03,.64,.08l14.16,3.79c.91,.24,1.42,.9,1.69,1.42,.49,.94,.54,2.09,.15,3.16-3.18,8.75-7.51,16.68-12.88,23.58-7.04,9.06-15.48,16.42-25.11,21.87-9.63,5.46-20.14,8.96-31.24,10.4-3.52,.45-7.11,.69-10.67,.69-7.69,0-15.6-1.07-23.51-3.19-11.57-3.1-21.95-8.12-30.85-14.92-8.91-6.81-16.26-15.1-21.86-24.63-5.61-9.53-9.24-20.13-10.81-31.5-1.57-11.37-.7-23.35,2.59-35.6,3.28-12.26,8.54-23.12,15.61-32.27,7.07-9.14,15.52-16.54,25.13-22,9.61-5.45,20.13-8.94,31.24-10.39,3.52-.45,7.11-.69,10.68-.69m0-5c-3.8,0-7.57,.24-11.32,.73-11.81,1.54-22.83,5.2-33.06,11-10.23,5.81-19.11,13.57-26.63,23.29-7.51,9.73-13.01,21.07-16.48,34.04-3.48,12.97-4.38,25.49-2.71,37.58,1.67,12.1,5.49,23.21,11.45,33.35,5.96,10.14,13.67,18.83,23.13,26.07,9.46,7.23,20.33,12.49,32.6,15.78,8.37,2.24,16.64,3.36,24.8,3.36,3.8,0,7.57-.24,11.32-.73,11.81-1.54,22.82-5.2,33.07-11.01,10.23-5.8,19.1-13.51,26.59-23.16,5.71-7.35,10.25-15.66,13.63-24.94,1.72-4.74-.69-9.9-5.25-11.12l-14.16-3.79c-.64-.17-1.29-.25-1.93-.25-3.25,0-6.33,2.13-7.66,5.49-3.04,7.66-7.42,14.11-13.17,19.37-7.44,6.84-16.24,11.38-26.4,13.64-4.41,.98-8.89,1.47-13.45,1.47-5.95,0-12.03-.83-18.23-2.5-11.13-2.98-20.48-7.97-28.08-14.99-7.58-7.01-12.89-15.33-15.93-24.98-3.02-9.63-3.09-19.88-.18-30.75,2.91-10.86,8.1-19.71,15.53-26.54,7.45-6.83,16.26-11.42,26.44-13.76,4.52-1.04,9.11-1.56,13.79-1.56,5.86,0,11.84,.82,17.93,2.45,9.15,2.45,17.14,6.36,23.98,11.72,1.34,1.05,2.95,1.58,4.58,1.58,1.42,0,2.87-.4,4.16-1.21l15.61-9.75c4.69-2.93,5.61-9.79,1.72-13.57-2.6-2.53-5.37-4.91-8.3-7.16-9.46-7.23-20.33-12.49-32.6-15.78-8.37-2.24-16.64-3.36-24.8-3.36h0Z"/>
      <path class="cls-1" d="M110.68,5c10.16,0,18.42,8.26,18.42,18.42v11.42c0,3.86-3.14,7-7,7h-22.84c-3.86,0-7-3.14-7-7v-11.42c0-10.16,8.26-18.42,18.42-18.42m0-5c-12.88,0-23.42,10.54-23.42,23.42v11.42c0,6.6,5.4,12,12,12h22.84c6.6,0,12-5.4,12-12v-11.42c0-12.88-10.54-23.42-23.42-23.42h0Z"/>
      <path class="cls-1" d="M197.97,30.94c4.94,0,9.56,1.91,13.02,5.37,7.18,7.18,7.18,18.87,0,26.05-3.46,3.46-8.09,5.37-13.02,5.37s-9.56-1.91-13.02-5.37l-8.07-8.07c-2.73-2.73-2.73-7.17,0-9.9l8.07-8.07c3.46-3.46,8.09-5.37,13.02-5.37m0-5c-6,0-12.01,2.28-16.56,6.83l-8.07,8.07c-4.67,4.67-4.67,12.3,0,16.97l8.07,8.07c4.55,4.55,10.56,6.83,16.56,6.83s12.01-2.28,16.56-6.83h0c9.11-9.11,9.11-24.01,0-33.12h0c-4.55-4.55-10.56-6.83-16.56-6.83h0Z"/>
      <path class="cls-1" d="M23.39,41.35c4.94,0,9.56,1.91,13.02,5.37l8.07,8.07c1.31,1.31,2.04,3.07,2.04,4.95s-.72,3.64-2.04,4.95l-8.07,8.07c-3.46,3.46-8.09,5.37-13.02,5.37s-9.56-1.91-13.02-5.37c-3.46-3.46-5.37-8.09-5.37-13.02s1.91-9.56,5.37-13.02c3.46-3.46,8.09-5.37,13.02-5.37m0-5c-6,0-12.01,2.28-16.56,6.83h0c-9.11,9.11-9.11,24.01,0,33.12h0c4.55,4.55,10.56,6.83,16.56,6.83s12.01-2.28,16.56-6.83l8.07-8.07c4.67-4.67,4.67-12.3,0-16.97l-8.07-8.07c-4.55-4.55-10.56-6.83-16.56-6.83h0Z"/>
      <path class="cls-1" d="M132.37,119.86v5c5.85,0,11.34,2.28,15.48,6.41,4.14,4.14,6.41,9.64,6.41,15.49s-2.26,11.31-6.37,15.43l-.58,.58h0s-18.51,18.52-18.51,18.52c-4.11,4.11-9.58,6.38-15.4,6.38s-11.28-2.26-15.4-6.38l-1.47-1.46-17.36-17.36-.02-.02-.24-.24c-8.46-8.54-8.43-22.4,.07-30.9,4.13-4.13,9.62-6.41,15.48-6.41s11.29,2.25,15.41,6.34l1.47,1.45h4.13l1.46-1.46c4.13-4.11,9.61-6.37,15.43-6.37v-5m0,0c-6.86,0-13.72,2.61-18.96,7.83h0c-5.24-5.2-12.09-7.79-18.93-7.79s-13.77,2.62-19.01,7.88c-10.47,10.47-10.5,27.43-.08,37.95,.03,.03,.05,.06,.08,.09l19.01,19.01h0c5.23,5.23,12.08,7.84,18.93,7.84s13.7-2.61,18.93-7.84l.03-.03,19.02-19.02s.04-.04,.05-.06c5.22-5.24,7.83-12.1,7.83-18.96s-2.62-13.77-7.88-19.02c-5.26-5.25-12.14-7.88-19.02-7.88h0Z"/>
      <line class="cls-2" x1="185.71" y1="204.63" x2="185.44" y2="204.36"/>
    </g>
  </g>
</svg>