<?xml version="1.0" encoding="UTF-8"?>
<svg id="Layer_2" data-name="Layer 2" xmlns="http://www.w3.org/2000/svg" viewBox="0 0 901.15 242.3">
  <defs>
    <style>
      .cls-1 {
        fill: #fefefe;
      }
    </style>
  </defs>
  <g id="Layer_1-2" data-name="Layer 1">
    <g>
      <path class="cls-1" d="M381.87,150.83c0,12.7-2.12,24.56-6.35,35.57-4.24,11.01-10.21,20.71-17.91,29.09-7.71,8.38-16.86,14.95-27.44,19.69-10.59,4.74-22.15,7.11-34.68,7.11s-24.05-2.37-34.55-7.11c-10.5-4.74-19.61-11.31-27.31-19.69-7.71-8.38-13.68-18.08-17.91-29.09-4.24-11.01-6.35-22.87-6.35-35.57s2.12-24.56,6.35-35.57c4.23-11.01,10.2-20.71,17.91-29.09,7.71-8.38,16.81-14.95,27.31-19.69,10.5-4.74,22.02-7.11,34.55-7.11s24.09,2.37,34.68,7.11c10.58,4.74,19.73,11.31,27.44,19.69,7.71,8.38,13.68,18.08,17.91,29.09,4.23,11.01,6.35,22.87,6.35,35.57Zm-33.03,0c0-11.34-2.29-21.63-6.86-30.87-4.57-9.23-10.84-16.55-18.8-21.97-7.96-5.42-17.19-8.13-27.69-8.13s-19.73,2.71-27.69,8.13c-7.96,5.42-14.19,12.7-18.67,21.85-4.49,9.15-6.73,19.48-6.73,30.99s2.24,21.64,6.73,30.87c4.49,9.23,10.71,16.56,18.67,21.98,7.96,5.42,17.19,8.13,27.69,8.13s19.73-2.71,27.69-8.13c7.96-5.42,14.23-12.74,18.8-21.98,4.57-9.23,6.86-19.52,6.86-30.87Z"/>
      <g>
        <path class="cls-1" d="M600.59,61.91c8.8,0,17.06,2.54,24.77,7.62,7.71,5.08,13.93,11.94,18.67,20.58,4.74,8.64,7.11,18.29,7.11,28.96s-2.37,20.07-7.11,28.71c-4.74,8.64-10.97,15.54-18.67,20.71-7.71,5.17-15.97,7.75-24.77,7.75h-46.75l2.54-4.57v52.59c0,4.4-1.36,8.09-4.07,11.05-2.71,2.96-6.27,4.45-10.67,4.45s-7.71-1.48-10.42-4.45c-2.71-2.96-4.06-6.65-4.06-11.05V77.41c0-4.4,1.48-8.09,4.45-11.05,2.96-2.96,6.65-4.45,11.05-4.45h57.93Zm0,85.37c3.22,0,6.35-1.35,9.4-4.07,3.05-2.71,5.59-6.22,7.62-10.54,2.03-4.32,3.05-8.85,3.05-13.59s-1.02-9.48-3.05-13.72c-2.03-4.23-4.57-7.66-7.62-10.29-3.05-2.63-6.19-3.94-9.4-3.94h-47.26l3.05-4.57v64.79l-2.79-4.07h47Z"/>
        <path class="cls-1" d="M739.31,242.3c-14.4,0-26.89-3-37.47-9.02-10.59-6.01-18.72-14.18-24.39-24.52-5.68-10.33-8.51-22.02-8.51-35.06,0-15.24,3.09-28.24,9.27-39,6.18-10.75,14.27-19.01,24.26-24.77,9.99-5.75,20.58-8.64,31.76-8.64,8.64,0,16.81,1.78,24.52,5.34,7.71,3.56,14.52,8.43,20.45,14.61,5.93,6.19,10.63,13.34,14.1,21.47,3.47,8.13,5.21,16.77,5.21,25.91-.17,4.07-1.78,7.37-4.83,9.91-3.05,2.54-6.61,3.81-10.67,3.81h-97.05l-7.62-25.4h93.24l-5.59,5.08v-6.86c-.34-4.91-2.08-9.31-5.21-13.21-3.14-3.89-7.03-6.99-11.69-9.27-4.66-2.29-9.62-3.43-14.86-3.43s-9.82,.68-14.23,2.03c-4.41,1.36-8.22,3.65-11.43,6.86-3.22,3.22-5.76,7.54-7.62,12.96-1.87,5.42-2.79,12.28-2.79,20.58,0,9.15,1.91,16.9,5.72,23.25,3.81,6.35,8.72,11.18,14.74,14.48,6.01,3.3,12.41,4.95,19.18,4.95,6.26,0,11.26-.51,14.99-1.52,3.72-1.02,6.73-2.24,9.02-3.68,2.29-1.44,4.36-2.67,6.23-3.68,3.05-1.53,5.93-2.29,8.64-2.29,3.72,0,6.82,1.27,9.27,3.81,2.45,2.54,3.68,5.51,3.68,8.89,0,4.57-2.37,8.73-7.11,12.45-4.41,3.73-10.59,6.99-18.55,9.78-7.96,2.79-16.18,4.19-24.64,4.19Z"/>
        <path class="cls-1" d="M826.71,106.37h60.21c4.07,0,7.45,1.36,10.16,4.06,2.71,2.71,4.07,6.1,4.07,10.17s-1.36,7.16-4.07,9.78c-2.71,2.63-6.1,3.94-10.16,3.94h-60.21c-4.06,0-7.46-1.35-10.16-4.07-2.71-2.71-4.06-6.1-4.06-10.16s1.35-7.15,4.06-9.78c2.71-2.63,6.1-3.94,10.16-3.94Zm27.19-31.76c4.4,0,8,1.49,10.8,4.45,2.79,2.97,4.19,6.65,4.19,11.05v113.06c0,2.37,.46,4.32,1.4,5.84,.93,1.52,2.2,2.63,3.81,3.3,1.61,.68,3.34,1.02,5.21,1.02,2.03,0,3.89-.38,5.59-1.14,1.69-.76,3.64-1.14,5.84-1.14,2.37,0,4.53,1.1,6.48,3.3,1.95,2.21,2.92,5.25,2.92,9.15,0,4.75-2.58,8.64-7.75,11.69-5.17,3.05-10.71,4.57-16.64,4.57-3.56,0-7.49-.29-11.81-.89-4.32-.59-8.38-2.03-12.2-4.32-3.81-2.29-6.99-5.8-9.53-10.54-2.54-4.74-3.81-11.26-3.81-19.56V90.11c0-4.4,1.48-8.08,4.45-11.05,2.96-2.96,6.65-4.45,11.05-4.45Z"/>
      </g>
      <path class="cls-1" d="M389.17,142.44s6.05,9.83,10.99,13.47c14.18,10.44,38.63,7.87,52.65-4.28,13.8-11.96,32.3-13.66,35.07,6.57,1.14,8.31-.65,22.51-.65,22.51,0,0,34.09-31.08,16.51-55.81-12.69-17.84-36.55-18.35-63.44,7.14-23.45,22.24-51.13,10.4-51.13,10.4Z"/>
      <g>
        <path class="cls-1" d="M101.39,57.83c-11.81,1.54-22.83,5.2-33.06,11-10.23,5.81-19.11,13.57-26.63,23.29-7.51,9.73-13.01,21.07-16.48,34.04-3.48,12.97-4.38,25.49-2.71,37.58,1.67,12.1,5.49,23.21,11.45,33.35,5.96,10.14,13.67,18.83,23.13,26.07,9.46,7.23,20.33,12.49,32.6,15.78,12.27,3.29,24.31,4.16,36.12,2.64,11.81-1.54,22.82-5.2,33.07-11.01,10.23-5.8,19.1-13.51,26.59-23.16,5.71-7.35,10.25-15.66,13.63-24.94,1.72-4.74-.69-9.9-5.25-11.12l-14.16-3.79c-3.9-1.05-8,1.21-9.59,5.23-3.04,7.66-7.42,14.11-13.17,19.37-7.44,6.84-16.24,11.38-26.4,13.64-10.16,2.26-20.72,1.91-31.68-1.03-11.13-2.98-20.48-7.97-28.08-14.99-7.58-7.01-12.89-15.33-15.93-24.98-3.02-9.63-3.09-19.88-.18-30.75s8.1-19.71,15.53-26.54c7.45-6.83,16.26-11.42,26.44-13.76,10.18-2.34,20.76-2.04,31.72,.89,9.15,2.45,17.14,6.36,23.98,11.72,2.52,1.97,5.96,2.1,8.74,.37l15.61-9.75c4.69-2.93,5.61-9.79,1.72-13.57-2.6-2.53-5.37-4.91-8.3-7.16-9.46-7.23-20.33-12.49-32.6-15.78-12.27-3.29-24.31-4.16-36.12-2.64Z"/>
        <path class="cls-1" d="M110.68,0h0C123.6,0,134.1,10.49,134.1,23.42v11.42c0,6.62-5.38,12-12,12h-22.84c-6.62,0-12-5.38-12-12v-11.42C87.26,10.49,97.75,0,110.68,0Z"/>
        <path class="cls-1" d="M197.97,25.92h0c12.93,0,23.42,10.49,23.42,23.42h0c0,12.93-10.49,23.42-23.42,23.42h-11.42c-6.62,0-12-5.38-12-12v-11.42c0-12.93,10.49-23.42,23.42-23.42Z" transform="translate(92.87 -125.53) rotate(45)"/>
        <path class="cls-1" d="M11.97,36.32h11.42c12.93,0,23.42,10.49,23.42,23.42h0c0,12.93-10.49,23.42-23.42,23.42h0C10.47,83.16-.03,72.67-.03,59.74v-11.42c0-6.62,5.38-12,12-12Z" transform="translate(82.17 85.45) rotate(135)"/>
        <path class="cls-1" d="M159.27,146.76c0,6.86-2.61,13.72-7.83,18.96,0,.02-.03,.04-.05,.06l-19.02,19.02-.03,.03c-10.46,10.46-27.41,10.46-37.86,0h0s0,0,0,0l-19.01-19.01s-.06-.06-.08-.09c-10.42-10.52-10.38-27.48,.08-37.95,5.25-5.26,12.13-7.88,19.01-7.88,6.84,0,13.69,2.59,18.93,7.79h0c10.5-10.45,27.49-10.43,37.98,.05,5.26,5.26,7.88,12.14,7.88,19.02Z"/>
        <line class="cls-1" x1="185.71" y1="204.63" x2="185.44" y2="204.36"/>
      </g>
    </g>
  </g>
</svg>