<?xml version="1.0" encoding="UTF-8"?>
<svg id="Layer_2" data-name="Layer 2" xmlns="http://www.w3.org/2000/svg" viewBox="0 0 901.15 244.8">
  <defs>
    <style>
      .cls-1 {
        fill: #292b2e;
      }

      .cls-2 {
        fill: none;
        stroke: #292b2e;
        stroke-miterlimit: 10;
        stroke-width: 5px;
      }
    </style>
  </defs>
  <g id="Layer_1-2" data-name="Layer 1">
    <g>
      <path class="cls-1" d="M295.49,64.37c11.76,0,22.74,2.25,32.63,6.68,9.91,4.44,18.59,10.67,25.8,18.51,7.24,7.88,12.94,17.13,16.92,27.5,3.99,10.39,6.02,21.75,6.02,33.77s-2.03,23.39-6.02,33.77c-3.99,10.37-9.68,19.62-16.92,27.5-7.22,7.85-15.9,14.08-25.8,18.51-9.9,4.43-20.88,6.68-32.64,6.68s-22.69-2.24-32.5-6.67c-9.83-4.44-18.47-10.66-25.69-18.52-7.25-7.88-12.94-17.13-16.92-27.5-3.99-10.38-6.02-21.74-6.02-33.77s2.03-23.39,6.02-33.77c3.99-10.37,9.68-19.62,16.92-27.5,7.21-7.85,15.85-14.08,25.69-18.52,9.81-4.43,20.74-6.67,32.49-6.67m0,152.44c11.48,0,21.74-3.03,30.51-9,8.64-5.89,15.53-13.92,20.47-23.89,4.9-9.88,7.38-21.02,7.38-33.09s-2.48-23.2-7.38-33.09c-4.94-9.96-11.82-18-20.47-23.89-8.77-5.97-19.04-9-30.51-9s-21.74,3.03-30.51,9c-8.65,5.89-15.5,13.89-20.35,23.78-4.81,9.79-7.24,20.96-7.24,33.2s2.43,23.19,7.23,33.05c4.85,9.99,11.7,18.03,20.36,23.92,8.76,5.97,19.03,9,30.51,9m0-157.44c-12.54,0-24.05,2.37-34.55,7.11-10.5,4.74-19.61,11.31-27.31,19.69-7.71,8.38-13.68,18.08-17.91,29.09-4.24,11.01-6.35,22.87-6.35,35.57s2.12,24.56,6.35,35.57c4.23,11.01,10.2,20.71,17.91,29.09,7.71,8.38,16.81,14.95,27.31,19.69,10.5,4.74,22.02,7.11,34.55,7.11s24.09-2.37,34.68-7.11c10.58-4.74,19.73-11.31,27.44-19.69,7.71-8.38,13.68-18.08,17.91-29.09,4.23-11.01,6.35-22.87,6.35-35.57s-2.12-24.56-6.35-35.57c-4.24-11.01-10.21-20.71-17.91-29.09-7.71-8.38-16.86-14.95-27.44-19.69-10.59-4.74-22.15-7.11-34.68-7.11h0Zm0,152.44c-10.5,0-19.73-2.71-27.69-8.13-7.96-5.42-14.19-12.74-18.67-21.98-4.49-9.23-6.73-19.52-6.73-30.87s2.24-21.85,6.73-30.99c4.49-9.15,10.71-16.43,18.67-21.85,7.96-5.42,17.19-8.13,27.69-8.13s19.73,2.71,27.69,8.13c7.96,5.42,14.23,12.75,18.8,21.97,4.57,9.24,6.86,19.52,6.86,30.87s-2.29,21.64-6.86,30.87c-4.57,9.23-10.84,16.56-18.8,21.98-7.96,5.42-17.19,8.13-27.69,8.13h0Z"/>
      <g>
        <path class="cls-1" d="M600.59,66.91c7.76,0,15.17,2.29,22.02,6.79,6.98,4.61,12.72,10.94,17.05,18.81,4.31,7.85,6.49,16.79,6.49,26.57s-2.18,18.45-6.49,26.29c-4.35,7.91-10.09,14.29-17.09,18.97-6.92,4.64-14.11,6.9-21.98,6.9h-49.2v53.02c0,3.14-.9,5.65-2.76,7.67-1.77,1.93-3.98,2.83-6.98,2.83-2.83,0-4.97-.9-6.73-2.83-1.85-2.02-2.75-4.53-2.75-7.67V77.41c0-3.1,.95-5.48,2.99-7.51,2.04-2.04,4.42-2.99,7.51-2.99h57.92m-49.2,85.37h49.2c4.46,0,8.74-1.79,12.71-5.33,3.53-3.13,6.51-7.22,8.84-12.16,2.33-4.96,3.51-10.25,3.51-15.72s-1.19-11-3.54-15.89c-2.33-4.84-5.32-8.84-8.87-11.9-3.97-3.42-8.23-5.15-12.67-5.15h-49.2v66.15m49.2-90.37h-57.92c-4.41,0-8.09,1.49-11.05,4.45-2.97,2.96-4.45,6.65-4.45,11.05V224.26c0,4.4,1.35,8.09,4.06,11.05,2.71,2.96,6.19,4.45,10.42,4.45s7.96-1.49,10.67-4.45c2.71-2.96,4.07-6.65,4.07-11.05v-48.02h44.2c8.81,0,17.07-2.58,24.77-7.75,7.71-5.16,13.93-12.07,18.68-20.71,4.74-8.63,7.11-18.2,7.11-28.7s-2.37-20.33-7.11-28.97c-4.75-8.63-10.97-15.49-18.68-20.58-7.7-5.07-15.96-7.62-24.77-7.62h0Zm-44.2,85.37v-56.15h44.2c3.22,0,6.35,1.31,9.4,3.94,3.05,2.63,5.59,6.06,7.63,10.29,2.03,4.23,3.04,8.81,3.04,13.72s-1.01,9.27-3.04,13.59c-2.04,4.32-4.58,7.84-7.63,10.54-3.05,2.71-6.18,4.07-9.4,4.07h-44.2Z"/>
        <path class="cls-1" d="M734.23,106.29c7.87,0,15.41,1.64,22.42,4.88,7.1,3.28,13.47,7.84,18.94,13.53,5.48,5.71,9.89,12.43,13.11,19.97,3.18,7.43,4.79,15.45,4.81,23.83-.13,2.6-1.09,4.57-3.03,6.18-2.14,1.78-4.59,2.65-7.47,2.65h-89.93l1.16,5.96c1.01,5.21,2.81,9.98,5.34,14.18,4.25,7.09,9.84,12.57,16.62,16.3,6.73,3.69,13.99,5.57,21.59,5.57,6.76,0,12.09-.55,16.31-1.7,4.25-1.17,7.64-2.57,10.34-4.27,2.28-1.42,4.21-2.57,5.9-3.49,2.3-1.14,4.43-1.72,6.32-1.72,2.36,0,4.17,.73,5.68,2.29,1.56,1.61,2.28,3.33,2.28,5.42,0,2.97-1.7,5.76-5.21,8.51l-.07,.06-.07,.06c-3.9,3.31-9.61,6.3-16.96,8.88-7.41,2.59-15.15,3.91-23,3.91-13.45,0-25.23-2.82-35-8.37-9.72-5.51-17.28-13.11-22.48-22.58-5.24-9.52-7.89-20.51-7.89-32.65,0-14.28,2.9-26.57,8.6-36.51,5.71-9.93,13.25-17.64,22.42-22.93,9.19-5.29,19.04-7.97,29.27-7.97m-40.85,55.64h77.61v-7.12c-.42-5.92-2.54-11.31-6.32-16.02-3.59-4.45-8.09-8.02-13.38-10.62-5.32-2.62-11.07-3.94-17.07-3.94-5.55,0-10.83,.76-15.71,2.25-5.16,1.59-9.69,4.32-13.49,8.1-3.75,3.75-6.71,8.75-8.82,14.88-.71,2.08-1.28,4.27-1.71,6.52l-1.12,5.93m40.85-60.64c-11.18,0-21.77,2.89-31.76,8.64-9.99,5.76-18.08,14.02-24.26,24.77-6.18,10.76-9.27,23.76-9.27,39,0,13.04,2.83,24.73,8.51,35.06,5.67,10.33,13.8,18.51,24.39,24.52,10.58,6.01,23.07,9.02,37.47,9.02,8.47,0,16.68-1.4,24.65-4.19,7.95-2.8,14.14-6.06,18.54-9.79,4.74-3.72,7.12-7.87,7.12-12.44,0-3.39-1.23-6.36-3.69-8.9-2.46-2.54-5.55-3.81-9.27-3.81-2.71,0-5.59,.76-8.64,2.29-1.87,1.02-3.94,2.25-6.23,3.68-2.28,1.44-5.29,2.67-9.01,3.69-3.73,1.01-8.73,1.52-14.99,1.52-6.78,0-13.17-1.65-19.18-4.95-6.02-3.31-10.93-8.13-14.74-14.49-2.23-3.71-3.81-7.9-4.72-12.57h83.86c4.06,0,7.62-1.27,10.67-3.81,3.05-2.54,4.66-5.84,4.83-9.91,0-9.15-1.74-17.79-5.21-25.91-3.47-8.13-8.17-15.29-14.1-21.47-5.93-6.18-12.75-11.05-20.45-14.61-7.71-3.56-15.88-5.34-24.52-5.34h0Zm-34.81,55.64c.4-2.11,.92-4.05,1.53-5.84,1.86-5.42,4.4-9.74,7.62-12.96,3.22-3.21,7.03-5.5,11.43-6.86,4.4-1.35,9.15-2.03,14.23-2.03s10.2,1.14,14.86,3.43c4.66,2.29,8.55,5.38,11.69,9.27,3.13,3.9,4.87,8.31,5.21,13.22v1.77h-66.57Z"/>
        <path class="cls-1" d="M853.89,79.62c3.03,0,5.31,.91,7.16,2.86,1.91,2.03,2.83,4.52,2.83,7.63v21.27h23.04c2.75,0,4.85,.82,6.62,2.6,1.78,1.78,2.61,3.88,2.61,6.62,0,2.54-.81,4.51-2.55,6.19-1.78,1.72-3.9,2.53-6.68,2.53h-23.04v73.85c0,3.31,.72,6.16,2.13,8.46,1.48,2.42,3.54,4.2,6.13,5.3,2.21,.93,4.61,1.4,7.16,1.4,2.73,0,5.3-.53,7.62-1.58,1.05-.47,2.33-.7,3.81-.7,.36,0,1.31,0,2.72,1.6,1.11,1.27,1.68,3.24,1.68,5.85,0,1.83-.55,4.58-5.29,7.37-4.43,2.62-9.04,3.89-14.1,3.89-3.3,0-7.04-.28-11.12-.84-3.64-.5-7.11-1.74-10.31-3.65-3.02-1.81-5.61-4.71-7.7-8.61-2.14-3.99-3.22-9.79-3.22-17.21v-75.12h-16.68c-2.76,0-4.86-.82-6.63-2.6-1.77-1.77-2.6-3.88-2.6-6.63,0-2.54,.81-4.51,2.54-6.19,1.78-1.72,3.91-2.52,6.69-2.52h16.68v-21.27c0-3.09,.95-5.48,2.99-7.51,2.03-2.03,4.42-2.98,7.51-2.98m0-5c-4.41,0-8.09,1.48-11.05,4.44-2.97,2.97-4.45,6.65-4.45,11.05v16.27h-11.68c-4.07,0-7.46,1.31-10.17,3.93-2.71,2.63-4.06,5.89-4.06,9.78s1.35,7.46,4.06,10.17c2.71,2.71,6.1,4.06,10.17,4.06h11.68v70.12c0,8.3,1.27,14.82,3.81,19.57,2.54,4.74,5.72,8.25,9.53,10.54,3.81,2.28,7.88,3.72,12.2,4.32,4.31,.59,8.25,.89,11.81,.89,5.93,0,11.47-1.53,16.64-4.58s7.75-6.94,7.75-11.68c0-3.9-.98-6.94-2.92-9.15-1.95-2.2-4.11-3.3-6.48-3.3-2.2,0-4.15,.38-5.85,1.14-1.69,.76-3.55,1.14-5.58,1.14-1.87,0-3.6-.33-5.21-1.01-1.61-.68-2.88-1.78-3.81-3.3-.94-1.53-1.4-3.47-1.4-5.85v-68.85h18.04c4.06,0,7.45-1.31,10.16-3.94,2.71-2.62,4.07-5.88,4.07-9.78s-1.36-7.45-4.07-10.16c-2.71-2.71-6.1-4.06-10.16-4.06h-18.04v-16.27c0-4.4-1.4-8.08-4.19-11.05-2.8-2.96-6.4-4.44-10.8-4.44h0Z"/>
      </g>
      <path class="cls-1" d="M479.84,117.12c8.01,0,14.86,3.69,19.83,10.67,6.02,8.47,5.42,19.1-1.8,31.58-1.45,2.52-3.05,4.87-4.62,6.98,.04-3.09-.05-6.21-.41-8.84-1.7-12.36-9.14-19.75-19.92-19.75-7.47,0-15.99,3.67-23.38,10.08-6.93,6-17.14,9.59-27.32,9.59-7.45,0-14.23-1.97-19.09-5.55-.55-.4-1.14-.94-1.77-1.57,1.73,.17,3.57,.27,5.51,.27,13.83,0,26.58-5.16,36.87-14.92,12.79-12.13,25.27-18.54,36.09-18.54m0-5c-11.45,0-25.05,6.19-39.53,19.91-11.36,10.77-23.72,13.55-33.43,13.55-10.34,0-17.7-3.15-17.7-3.15,0,0,6.05,9.83,10.99,13.47,6.02,4.44,13.91,6.53,22.05,6.53,11.02,0,22.53-3.82,30.6-10.81,6.37-5.52,13.74-8.85,20.11-8.85,7.42,0,13.47,4.53,14.97,15.43,1.14,8.31-.65,22.51-.65,22.51,0,0,34.09-31.08,16.51-55.81-5.85-8.23-14.09-12.78-23.9-12.78h0Z"/>
      <g>
        <path class="cls-1" d="M112.71,62.11c7.69,0,15.6,1.07,23.51,3.19,11.57,3.1,21.95,8.12,30.85,14.92,2.77,2.12,5.41,4.4,7.86,6.78,.98,.95,.95,2.27,.89,2.79-.13,1.24-.8,2.34-1.78,2.96l-15.61,9.75c-.48,.3-1,.46-1.52,.46-.55,0-1.06-.18-1.49-.52-7.34-5.76-16.01-10-25.77-12.61-6.49-1.74-12.96-2.62-19.23-2.62-5.03,0-10.04,.57-14.91,1.68-10.97,2.52-20.63,7.55-28.71,14.95-8.12,7.47-13.83,17.2-16.97,28.93-3.14,11.73-3.06,23.01,.24,33.54,3.28,10.44,9.11,19.57,17.3,27.15,8.15,7.53,18.31,12.96,30.18,16.14,6.6,1.77,13.17,2.67,19.53,2.67,4.9,0,9.79-.53,14.54-1.59,10.98-2.44,20.64-7.43,28.69-14.83,6.27-5.74,11.12-12.88,14.43-21.21,.55-1.4,1.77-2.33,3.02-2.33,.21,0,.43,.03,.64,.08l14.16,3.79c.91,.24,1.42,.9,1.69,1.42,.49,.94,.54,2.09,.15,3.16-3.18,8.75-7.51,16.68-12.88,23.58-7.04,9.06-15.48,16.42-25.11,21.87-9.63,5.46-20.14,8.96-31.24,10.4-3.52,.45-7.11,.69-10.67,.69-7.69,0-15.6-1.07-23.51-3.19-11.57-3.1-21.95-8.12-30.85-14.92-8.91-6.81-16.26-15.1-21.86-24.63-5.61-9.53-9.24-20.13-10.81-31.5-1.57-11.37-.7-23.35,2.59-35.6,3.28-12.26,8.54-23.12,15.61-32.27,7.06-9.14,15.52-16.54,25.13-22,9.61-5.45,20.13-8.94,31.24-10.39,3.52-.46,7.11-.69,10.68-.69m0-5c-3.8,0-7.57,.24-11.32,.73-11.81,1.54-22.83,5.2-33.06,11-10.23,5.81-19.11,13.57-26.63,23.29-7.51,9.73-13.01,21.07-16.48,34.04-3.48,12.97-4.38,25.49-2.71,37.58,1.67,12.1,5.49,23.21,11.45,33.35,5.96,10.14,13.67,18.83,23.13,26.07,9.46,7.23,20.33,12.49,32.6,15.78,8.37,2.24,16.64,3.36,24.8,3.36,3.8,0,7.57-.24,11.32-.73,11.81-1.54,22.82-5.2,33.07-11.01,10.23-5.8,19.1-13.51,26.59-23.16,5.71-7.35,10.25-15.66,13.63-24.94,1.72-4.74-.69-9.9-5.25-11.12l-14.16-3.79c-.64-.17-1.29-.25-1.93-.25-3.25,0-6.33,2.13-7.66,5.49-3.04,7.66-7.42,14.11-13.17,19.37-7.44,6.84-16.24,11.38-26.4,13.64-4.41,.98-8.89,1.47-13.45,1.47-5.95,0-12.03-.83-18.23-2.5-11.13-2.98-20.48-7.97-28.08-14.99-7.58-7.01-12.89-15.33-15.93-24.98-3.02-9.63-3.09-19.88-.18-30.75,2.91-10.86,8.1-19.71,15.53-26.54,7.45-6.83,16.26-11.42,26.44-13.76,4.52-1.04,9.11-1.56,13.79-1.56,5.86,0,11.84,.82,17.93,2.45,9.15,2.45,17.14,6.36,23.98,11.72,1.34,1.05,2.95,1.58,4.58,1.58,1.42,0,2.87-.4,4.16-1.21l15.61-9.75c4.69-2.93,5.61-9.79,1.72-13.57-2.6-2.53-5.37-4.91-8.3-7.16-9.46-7.23-20.33-12.49-32.6-15.78-8.37-2.24-16.64-3.36-24.8-3.36h0Z"/>
        <path class="cls-1" d="M110.68,5c10.16,0,18.42,8.26,18.42,18.42v11.42c0,3.86-3.14,7-7,7h-22.84c-3.86,0-7-3.14-7-7v-11.42c0-10.16,8.26-18.42,18.42-18.42m0-5h0c-12.88,0-23.42,10.54-23.42,23.42v11.42c0,6.6,5.4,12,12,12h22.84c6.6,0,12-5.4,12-12v-11.42c0-12.88-10.54-23.42-23.42-23.42h0Z"/>
        <path class="cls-1" d="M197.97,30.94c4.94,0,9.56,1.91,13.02,5.37,3.46,3.46,5.37,8.09,5.37,13.02s-1.91,9.56-5.37,13.02c-3.46,3.46-8.09,5.37-13.02,5.37s-9.56-1.91-13.02-5.37l-8.07-8.07c-2.73-2.73-2.73-7.17,0-9.9l8.07-8.07c3.46-3.46,8.09-5.37,13.02-5.37m0-5c-6,0-12.01,2.28-16.56,6.83l-8.07,8.07c-4.67,4.67-4.67,12.3,0,16.97l8.07,8.07c4.55,4.55,10.56,6.83,16.56,6.83s12.01-2.28,16.56-6.83h0c9.11-9.11,9.11-24.01,0-33.12h0c-4.55-4.55-10.56-6.83-16.56-6.83h0Z"/>
        <path class="cls-1" d="M23.39,41.35c4.94,0,9.56,1.91,13.02,5.37l8.07,8.07c2.73,2.73,2.73,7.17,0,9.9l-8.07,8.07c-3.46,3.46-8.09,5.37-13.02,5.37s-9.56-1.91-13.02-5.37c-3.46-3.46-5.37-8.09-5.37-13.02s1.91-9.56,5.37-13.02c3.46-3.46,8.09-5.37,13.02-5.37m0-5c-6,0-12.01,2.28-16.56,6.83h0c-9.11,9.11-9.11,24.01,0,33.12h0c4.55,4.55,10.56,6.83,16.56,6.83s12.01-2.28,16.56-6.83l8.07-8.07c4.67-4.67,4.67-12.3,0-16.97l-8.07-8.07c-4.55-4.55-10.56-6.83-16.56-6.83h0Z"/>
        <path class="cls-1" d="M132.37,119.86v5c5.85,0,11.34,2.28,15.48,6.41,4.14,4.14,6.41,9.64,6.41,15.49s-2.26,11.31-6.37,15.43l-.57,.57h0s-18.52,18.53-18.52,18.53c-4.11,4.11-9.58,6.38-15.4,6.38s-11.28-2.26-15.4-6.38l-1.47-1.46h0l-17.36-17.36-.02-.02-.24-.24c-8.46-8.54-8.43-22.4,.07-30.89,4.13-4.13,9.62-6.41,15.48-6.41s11.29,2.25,15.41,6.34l1.47,1.45h4.13l1.46-1.46c4.13-4.11,9.61-6.37,15.43-6.37v-5m0,0c-6.86,0-13.72,2.61-18.96,7.83h0c-5.24-5.2-12.09-7.79-18.93-7.79s-13.77,2.62-19.01,7.88c-10.47,10.47-10.5,27.43-.08,37.95,.03,.03,.05,.06,.08,.09l19.01,19.01h0c5.23,5.23,12.08,7.84,18.93,7.84s13.7-2.61,18.93-7.84l.03-.03,19.02-19.02s.04-.04,.05-.06c5.22-5.24,7.83-12.1,7.83-18.96s-2.62-13.77-7.88-19.02c-5.26-5.25-12.14-7.88-19.02-7.88h0Z"/>
        <line class="cls-2" x1="185.71" y1="204.63" x2="185.44" y2="204.36"/>
      </g>
    </g>
  </g>
</svg>